<svg xmlns="http://www.w3.org/2000/svg" width="512" height="512" viewBox="0 0 512 512">
  <rect x="8" y="8" width="496" height="496" rx="108" fill="#fff"/>
  <g fill="#000" transform="translate(25 -22) scale(.9)">
      <g transform="translate(128)">
        <path d="M-9 130v130h9c29-15 58-30 58-50 0-35-58-45-58-80Z"/>
        <path d="M0 82v48c0 35 58 45 58 80 0 20-29 35-58 50s-58 30-58 50c0 35 58 45 58 80v40"
              fill="none" stroke="#000" stroke-width="18" stroke-linecap="round" stroke-linejoin="round"/>
      </g>
      <g transform="translate(256)">
        <path d="M-9 130v130h9c29-15 58-30 58-50 0-35-58-45-58-80Z"/>
        <path d="M0 82v48c0 35 58 45 58 80 0 20-29 35-58 50s-58 30-58 50c0 35 58 45 58 80v40"
              fill="none" stroke="#000" stroke-width="18" stroke-linecap="round" stroke-linejoin="round"/>
      </g>
      <g transform="translate(384)">
        <path d="M-9 130v130h9c29-15 58-30 58-50 0-35-58-45-58-80Z"/>
        <path d="M0 82v48c0 35 58 45 58 80 0 20-29 35-58 50s-58 30-58 50c0 35 58 45 58 80v40"
              fill="none" stroke="#000" stroke-width="18" stroke-linecap="round" stroke-linejoin="round"/>
      </g>
    </g>
    <path d="M9 380H503V396A108 108 0 0 1 396 504H116A108 108 0 0 1 8 396Z" fill="#23834d"/>
    <g transform="translate(256 442) scale(1.25) translate(-256 -442)">
    <path d="M208.88 451.23L219.29 450.22C219.92 453.71 221.19 456.28 223.1 457.92C225.02 459.55 227.6 460.37 230.85 460.37C234.3 460.37 236.89 459.64 238.64 458.19C240.38 456.73 241.26 455.03 241.26 453.07C241.26 451.82 240.89 450.76 240.16 449.88C239.42 449 238.14 448.23 236.31 447.58C235.06 447.15 232.2 446.38 227.74 445.27C222.01 443.85 217.99 442.1 215.68 440.03C212.42 437.12 210.8 433.56 210.8 429.37C210.8 426.67 211.56 424.15 213.09 421.8C214.62 419.45 216.83 417.66 219.7 416.44C222.58 415.21 226.06 414.59 230.13 414.59C236.78 414.59 241.78 416.05 245.14 418.97C248.5 421.88 250.27 425.77 250.44 430.64L239.74 431.11C239.28 428.38 238.3 426.43 236.8 425.23C235.29 424.04 233.03 423.45 230.02 423.45C226.91 423.45 224.48 424.08 222.72 425.36C221.59 426.18 221.02 427.28 221.02 428.65C221.02 429.9 221.55 430.97 222.61 431.86C223.96 433 227.24 434.18 232.44 435.41C237.64 436.63 241.49 437.9 243.99 439.22C246.48 440.53 248.43 442.33 249.84 444.6C251.25 446.88 251.95 449.69 251.95 453.04C251.95 456.07 251.11 458.92 249.42 461.57C247.74 464.22 245.35 466.18 242.27 467.47C239.19 468.76 235.34 469.41 230.74 469.41C224.05 469.41 218.9 467.86 215.31 464.76C211.73 461.67 209.58 457.16 208.88 451.23ZM260.88 415.5L271.57 415.5L271.57 444.19C271.57 448.74 271.71 451.69 271.97 453.04C272.43 455.21 273.52 456.95 275.24 458.26C276.96 459.57 279.32 460.23 282.3 460.23C285.34 460.23 287.63 459.61 289.17 458.37C290.71 457.13 291.64 455.6 291.95 453.8C292.27 451.99 292.42 448.99 292.42 444.8L292.42 415.5L303.12 415.5L303.12 443.32C303.12 449.68 302.83 454.17 302.25 456.8C301.67 459.42 300.61 461.64 299.05 463.44C297.5 465.25 295.42 466.69 292.82 467.76C290.22 468.83 286.82 469.37 282.63 469.37C277.57 469.37 273.74 468.79 271.12 467.62C268.51 466.45 266.44 464.93 264.92 463.07C263.41 461.2 262.41 459.24 261.93 457.19C261.23 454.16 260.88 449.68 260.88 443.75Z" fill="#fff" fill-rule="nonzero"/>
    </g>
  <rect x="8" y="8" width="496" height="496" rx="108" fill="none" stroke="#000" stroke-width="14"/>
</svg>
